<svg width="11" height="19" viewBox="0 0 11 19" fill="none" xmlns="http://www.w3.org/2000/svg">
<path d="M7.543 9.79213L0.396239 2.96909C0.270658 2.84981 0.171004 2.70801 0.103004 2.55184C0.0350045 2.39567 0 2.22822 0 2.05909C0 1.88997 0.0350045 1.72251 0.103004 1.56634C0.171004 1.41018 0.270658 1.26838 0.396239 1.14909C0.65101 0.908873 0.994665 0.77417 1.35274 0.77417C1.71082 0.77417 2.05447 0.908873 2.30924 1.14909L10.4067 8.87498C10.6515 9.10944 10.7923 9.42495 10.7997 9.75593C10.8071 10.0869 10.6807 10.4079 10.4466 10.6521L2.31257 18.4272C2.05677 18.6552 1.71834 18.7795 1.36849 18.774C1.01863 18.7685 0.684642 18.6337 0.436795 18.3979C0.188949 18.1621 0.0465737 17.8437 0.0396293 17.5097C0.0326849 17.1758 0.161713 16.8522 0.399563 16.6072L7.543 9.79213Z" fill="white"/>
</svg>
