<svg xmlns="http://www.w3.org/2000/svg" xmlns:xlink="http://www.w3.org/1999/xlink" width="253" height="66.718"><defs><linearGradient id="A" y1=".5" x2=".999" y2=".5"><stop offset="0" stop-color="#ef7c22"/><stop offset="1" stop-color="#f5a022"/></linearGradient><linearGradient id="B" x1=".562" y1="1.003" x2=".388" y2=".621"><stop offset="0" stop-color="#f26524"/><stop offset=".25" stop-color="#ef7c22"/><stop offset="1" stop-color="#f5a022"/></linearGradient><linearGradient id="C" x1=".977" y1="1.018" x2=".52" y2=".607" xlink:href="#B"/><linearGradient id="D" x1=".099" y1=".993" x2=".417" y2=".551" xlink:href="#B"/><linearGradient id="E" x1="1.015" y1=".785" x2=".361" y2=".319" xlink:href="#B"/><linearGradient id="F" x1="-.029" y1=".736" x2=".537" y2=".355" xlink:href="#B"/><linearGradient id="G" x1="1.009" y1=".539" x2=".612" y2=".388" xlink:href="#B"/><linearGradient id="H" x1="-.034" y1=".136" x2=".38" y2=".539" xlink:href="#B"/><linearGradient id="I" x1=".992" y1=".159" x2=".521" y2=".473" xlink:href="#B"/><linearGradient id="J" x1=".952" y1=".077" x2=".53" y2=".425" xlink:href="#B"/><linearGradient id="K" x1=".014" y1=".003" x2=".434" y2=".433" xlink:href="#B"/><linearGradient id="L" x1=".842" y1=".002" x2=".45" y2=".356" xlink:href="#B"/><linearGradient id="M" x1=".196" y1=".005" x2=".464" y2=".365" xlink:href="#B"/></defs><path d="M246.62 60.025a2.58 2.58 0 0 1 2.575-2.464 2.58 2.58 0 0 1 2.576 2.464zm2.8 4.51c1.06 0 2.09-.356 2.926-1l-.527-.88a3.84 3.84 0 0 1-2.382.826 2.78 2.78 0 0 1-2.813-2.514h6.3a4.56 4.56 0 0 0 0-.475c.04-1.02-.328-2.013-1.022-2.76s-1.658-1.187-2.678-1.222c-2.152.135-3.815 1.94-3.773 4.097s1.776 3.895 3.93 3.946m-12.306-.158h1.213v-4.4a2.32 2.32 0 0 1 2.341-2.359c1.4 0 1.925.765 1.925 2.2v4.518h1.2v-4.65c0-2.03-.88-3.2-2.8-3.2-1.08-.018-2.087.546-2.637 1.477v-1.325h-1.213zm-5.775-1.01c-1.16.014-2.212-.674-2.665-1.74s-.215-2.303.6-3.126 2.05-1.072 3.12-.63 1.77 1.5 1.766 2.65a2.78 2.78 0 0 1-2.822 2.848m0 1.17a4.01 4.01 0 0 0 1.432-7.727 4.01 4.01 0 0 0-4.309 6.572c.766.754 1.802 1.17 2.877 1.155m-11.225 2.18a2.79 2.79 0 0 0 2.839-1.951l3.683-8.113h-1.24l-2.3 5.142-.36.88-.352-.88-2.426-5.186h-1.257l3.516 7.226-.167.343c-.527 1.116-1.055 1.354-1.9 1.354zm-6.153-2.338h1.207v-3.67a2.7 2.7 0 0 1 2.98-2.91v-1.3a3.05 3.05 0 0 0-2.98 1.758v-1.635h-1.178zm-8.052-4.4a2.58 2.58 0 0 1 2.576-2.464 2.58 2.58 0 0 1 2.576 2.464zm2.8 4.51c1.06 0 2.09-.356 2.926-1l-.527-.88c-.678.537-1.517.828-2.382.826a2.78 2.78 0 0 1-2.813-2.514h6.31v-.475c.04-1.02-.328-2.013-1.022-2.76s-1.658-1.187-2.678-1.222c-2.152.135-3.815 1.94-3.773 4.097s1.776 3.895 3.93 3.946m-9.1-.08h1.108l3.4-7.78h-1.222l-2.18 4.93a14.27 14.27 0 0 0-.554 1.547c-.155-.526-.34-1.042-.554-1.547l-2.2-4.93h-1.222zm-10.414-4.397a2.58 2.58 0 0 1 2.575-2.464 2.58 2.58 0 0 1 2.575 2.464zm2.8 4.51c1.06 0 2.092-.356 2.927-1.01l-.527-.88a3.84 3.84 0 0 1-2.382.826 2.78 2.78 0 0 1-2.813-2.514h6.3a4.56 4.56 0 0 0 0-.475c.04-1.02-.328-2.013-1.022-2.76s-1.658-1.187-2.678-1.222c-2.152.135-3.815 1.94-3.773 4.097s1.776 3.895 3.93 3.946m-12.78-.158h1.2v-3.66c-.065-.804.232-1.595.8-2.158s1.377-.838 2.18-.752v-1.3c-1.263-.085-2.45.613-2.99 1.758v-1.638h-1.2zm-5.784-1.01c-1.16.01-2.21-.68-2.66-1.748s-.2-2.302.607-3.123 2.05-1.07 3.12-.625 1.767 1.5 1.764 2.648a2.78 2.78 0 0 1-2.831 2.848m0 1.17a4.01 4.01 0 0 0 1.445-7.725 4.01 4.01 0 0 0-4.317 6.567c.765.753 1.8 1.17 2.872 1.158m-8.254-.158h1.2V57.65h2.5v-.993h-2.46v-.466c0-1.2.527-1.5 1.134-1.5.427.015.842.146 1.2.378l.4-.923c-.563-.33-1.202-.5-1.855-.52-1.064 0-2.083.52-2.083 2.444v.59h-1.257v.993h1.257zm-6.84.158c.63-.01 1.242-.21 1.758-.57l-.4-.932a2.33 2.33 0 0 1-1.275.431c-.615 0-1.08-.308-1.08-1.37V57.65h2.637v-.993h-2.634v-1.9l-1.2.22v1.67h-1.15v.993h1.16v4.4c0 1.81.81 2.47 2.18 2.47m-10.645-4.51c.066-1.372 1.198-2.45 2.57-2.45s2.505 1.078 2.57 2.45zm2.8 4.51a4.7 4.7 0 0 0 2.918-1.011l-.52-.88a3.84 3.84 0 0 1-2.382.826 2.78 2.78 0 0 1-2.813-2.514h6.3a4.56 4.56 0 0 0 0-.475c.04-1.02-.328-2.013-1.022-2.76s-1.658-1.187-2.678-1.222c-2.152.135-3.815 1.94-3.773 4.097s1.776 3.895 3.93 3.946m-12.316-.157h1.213v-4.4a2.32 2.32 0 0 1 2.347-2.365c1.4 0 1.925.765 1.925 2.2v4.518h1.2v-4.64c0-2.03-.88-3.2-2.8-3.2-1.096-.034-2.124.532-2.68 1.477v-1.316h-1.204zm-5.59 0h1.213v-3.666a2.7 2.7 0 0 1 2.98-2.91v-1.3a3.05 3.05 0 0 0-2.98 1.758V56.61h-1.213zm-8.052-4.4a2.58 2.58 0 0 1 2.575-2.464 2.58 2.58 0 0 1 2.575 2.464zm2.8 4.51c1.06 0 2.092-.356 2.927-1.01l-.527-.88c-.678.537-1.517.828-2.382.826a2.78 2.78 0 0 1-2.813-2.514h6.31v-.475c.04-1.02-.328-2.013-1.022-2.76s-1.658-1.187-2.678-1.222c-2.152.135-3.815 1.94-3.773 4.097s1.776 3.895 3.93 3.946m-6.84 0a3.12 3.12 0 0 0 1.758-.571l-.4-.932c-.372.268-.816.418-1.275.43-.615 0-1.072-.308-1.072-1.37v-4.448h2.637v-.993h-2.637v-1.88l-1.213.22v1.67h-1.16v.993h1.16v4.4c0 1.81.81 2.47 2.18 2.47m-11.18-.158h1.2v-4.4a2.32 2.32 0 0 1 2.356-2.365c1.4 0 1.916.765 1.916 2.2v4.518h1.213v-4.58c0-2.03-.88-3.2-2.8-3.2a3.03 3.03 0 0 0-2.69 1.477v-1.325h-1.2zm-2.637-9.116a.79.79 0 0 0 .809-.791.81.81 0 0 0-.809-.809.8.8 0 0 0-.791.809.78.78 0 0 0 .791.791m-.6 9.116h1.2v-7.727h-1.2zm-9.054 0h1.2v-3.675c-.066-.807.233-1.6.814-2.164s1.384-.837 2.188-.746v-1.3c-1.263-.085-2.45.613-2.99 1.758v-1.635h-1.2zm-8.052-4.4c.066-1.372 1.198-2.45 2.57-2.45s2.505 1.078 2.57 2.45zm2.8 4.51a4.72 4.72 0 0 0 2.918-1.01l-.518-.88a3.86 3.86 0 0 1-2.382.826 2.78 2.78 0 0 1-2.813-2.514h6.3a4.55 4.55 0 0 0 0-.475c.04-1.02-.328-2.013-1.022-2.76s-1.658-1.187-2.678-1.222c-2.152.135-3.815 1.94-3.773 4.097s1.776 3.895 3.93 3.946m-6.848 0a3.18 3.18 0 0 0 1.758-.571l-.308-.835a2.33 2.33 0 0 1-1.275.431c-.615 0-1.08-.308-1.08-1.37v-4.448h2.645v-.993h-2.637v-1.9l-1.2.22v1.67h-1.16v.993h1.2v4.4c0 1.81.81 2.47 2.17 2.47m-5.793 0a3.12 3.12 0 0 0 1.758-.571l-.4-.932c-.37.267-.8.417-1.266.43-.624 0-1.08-.308-1.08-1.37v-4.448h2.637v-.993h-2.637v-1.905l-1.213.22v1.67h-1.152v.993H76.8v4.4c0 1.81.817 2.47 2.18 2.47m-10.636-4.51c.066-1.372 1.198-2.45 2.57-2.45s2.505 1.078 2.57 2.45zm2.8 4.51a4.72 4.72 0 0 0 2.918-1.01l-.527-.88c-.678.537-1.517.828-2.382.826a2.77 2.77 0 0 1-2.8-2.514h6.3v-.476c.04-1.02-.328-2.013-1.022-2.76s-1.658-1.187-2.678-1.222c-2.153.136-3.815 1.945-3.77 4.102s1.78 3.895 3.938 3.94m-9.37-1.17c-1.17.072-2.265-.577-2.763-1.638s-.297-2.318.506-3.172 2.046-1.13 3.135-.697 1.803 1.487 1.802 2.66a2.7 2.7 0 0 1-2.681 2.848m.264 1.17c2.057-.218 3.618-1.953 3.618-4.022s-1.56-3.804-3.618-4.022c-1.167-.064-2.278.5-2.9 1.5v-4.058h-1.2v10.44h1.152v-1.3a3.25 3.25 0 0 0 2.954 1.5" fill="#848585"/><path d="M195.207 32.955l-.94 5.345c-.07.326.032.666.272.898s.582.325.906.245a1.44 1.44 0 0 0 1.257-1.231c.1-.43.158-.88.23-1.3l.712-4.035c0-.738-.36-1.108-.976-1.134h-.053c-.707.002-1.306.522-1.406 1.222m17.826-7.69c-.694.237-.88.8-1 1.468l-1.2 6.883q-.4 2.268-.81 4.527c-.088.527-.08 1.028.536 1.257.567.164 1.172-.084 1.46-.6.136-.276.222-.573.255-.88l1.24-7.032.818-4.676a.88.88 0 0 0-.879-1.011 1.32 1.32 0 0 0-.4.062m26.054-.08c-1.177.25-2.255.842-3.1 1.7-.185.15-.308.422-.668.352l.167-.826a.88.88 0 0 0-.316-1.02c-.314-.23-.734-.255-1.072-.062a1.36 1.36 0 0 0-.817 1.116q-1.028 5.9-2.074 11.8a.95.95 0 0 0 .29 1.029c.357.246.83.246 1.187 0a1.44 1.44 0 0 0 .721-1.116l1.486-8.377c.02-.21.106-.406.246-.563a5.58 5.58 0 0 1 3.745-1.864 1.54 1.54 0 0 0 1.064-.475 1.11 1.11 0 0 0 .3-1.319c-.13-.294-.435-.472-.756-.44-.133-.013-.267-.013-.4 0m7.032 0a8.79 8.79 0 0 0-6.909 8.9c-.084 2.33 1.37 4.438 3.578 5.186a9.4 9.4 0 0 0 7.595-1.178c.462-.3.615-.905.352-1.39-.3-.4-.72-.413-1.345 0a7.3 7.3 0 0 1-3.516 1.16c-1.712.16-3.332-.8-4.008-2.382-1.066-3.246.438-6.78 3.516-8.263 3.015-1.2 5.73.58 5.617 3.674 0 .457-.158.6-.624.59H244.7c-.765 0-1.17.193-1.178.8s.58.826 1.1.818h6.26c.833.11 1.64-.33 2-1.1.16-.895.16-1.812 0-2.707-.153-.916-.547-1.775-1.143-2.488-1-1.163-2.475-1.8-4.008-1.758-.534.005-1.067.06-1.59.167m-33.623-3a1.2 1.2 0 0 0 1.2 1.257 1.82 1.82 0 0 0 1.758-1.688 1.2 1.2 0 0 0-1.205-1.263h0a1.83 1.83 0 0 0-1.758 1.7m-13.036-2.1c-1.1-.085-2.086.674-2.285 1.758l-1.3 7.322a1.09 1.09 0 0 0 .923 1.345 4.92 4.92 0 0 0 .879.053h9.1a3.02 3.02 0 0 0 .633 0 1.22 1.22 0 0 0 .984-1.336c-.044-.563-.36-.8-1.125-.8h-8.8l1.01-5.766c.07-.4.308-.37.59-.36h8.342a3.11 3.11 0 0 0 .809-.07 1.22 1.22 0 0 0 .879-1.363c-.1-.65-.58-.747-1.125-.747h-9.546m19.77.062a1.32 1.32 0 0 0-.624.976q-1.257 7.032-2.514 14.152l-.5 2.98c-.133.434.053.9.448 1.125a1.15 1.15 0 0 0 1.283-.246c.294-.275.47-.653.492-1.055l1.275-7.454c.13-1.226.895-2.293 2.013-2.813.477-.268.985-.477 1.512-.624 2.444-.677 4.518.52 4.835 2.84a7.3 7.3 0 0 1-1.758 5.986c-1.3 1.53-3.422 2.054-5.274 1.292-.325-.132-.668-.2-.88.132a.88.88 0 0 0 0 1.116c.376.518.94.866 1.573.967 1.95.438 3.993-.1 5.476-1.442a9.37 9.37 0 0 0 3.024-9.476 4.3 4.3 0 0 0-3.674-3.455c-1.42-.268-2.888-.03-4.15.677-.732.383-1.41.862-2.013 1.424-.063-.195-.063-.405 0-.6l.976-5.582a.88.88 0 0 0-.369-1.055.94.94 0 0 0-.5-.149c-.245.013-.482.092-.686.23" fill="url(#A)"/><g fill="#848585"><path d="M94.452 27.255c3.156-3.05 6.856-2.918 8.184.2l.8-.756a5.57 5.57 0 0 1 4.914-1.573 3.34 3.34 0 0 1 2.822 3.182 24.23 24.23 0 0 1 .053 2.523v7.208c0 .932-.4 1.46-1.116 1.45s-1.072-.536-1.072-1.424v-8.272c-.07-2.338-1.758-3.4-3.885-2.514-.367.16-.717.353-1.046.58a2.54 2.54 0 0 0-1.319 2.426v8.017c.053.525-.294 1.008-.8 1.125-.463.138-.96-.053-1.213-.466-.136-.236-.2-.512-.15-.782v-8.035a6.16 6.16 0 0 0 0-.694c-.237-2.04-1.617-2.927-3.578-2.277a5.35 5.35 0 0 0-2.347 1.644 1.15 1.15 0 0 0-.237.817v8.395c.018.2.018.38 0 .57a1.07 1.07 0 0 1-1.16.879c-.54.004-.98-.428-.984-.967v-12.3a1.03 1.03 0 0 1 .36-.72c.213-.182.488-.27.766-.247.55.003 1.005.428 1.046.976v1.046m21.385-.024c3.1-3.27 7.27-2.637 8.237.3a6.46 6.46 0 0 1 1.758-1.617 5.5 5.5 0 0 1 3.991-.782c1.758.316 2.778 1.7 2.813 3.868v9.16c0 .817-.43 1.336-1.116 1.32a1.16 1.16 0 0 1-1.072-1.292v-7.9a5.1 5.1 0 0 0-.044-.818c-.23-2.057-1.653-2.954-3.63-2.285a5.38 5.38 0 0 0-2.312 1.582 1.2 1.2 0 0 0-.255.879v8.527a1.16 1.16 0 0 1-.642 1.2 1.11 1.11 0 0 1-1.556-1.134v-8.843a2.38 2.38 0 0 0-2.962-2.365 5 5 0 0 0-3.041 1.89c-.154.227-.214.504-.167.774v8.588a1.06 1.06 0 0 1-.387.954c-.285.23-.667.298-1.013.18a1.02 1.02 0 0 1-.765-1.037V26.3a1.07 1.07 0 0 1 1.125-1.1 1.06 1.06 0 0 1 .754.334 1.05 1.05 0 0 1 .283.774v.88M67.457 19.77a8.67 8.67 0 0 1 6.733 2.637 1.22 1.22 0 0 1 .229 1.5c-.175.317-.494.53-.854.57a1.11 1.11 0 0 1-.957-.37 6.39 6.39 0 0 0-6.769-1.925c-2.535.633-4.5 2.638-5.08 5.186a8.05 8.05 0 0 0 3.077 8.93 6.75 6.75 0 0 0 8.7-.932 1.14 1.14 0 0 1 .796-.453 1.15 1.15 0 0 1 .874.277 1.24 1.24 0 0 1 0 1.8c-1.868 1.945-4.538 2.905-7.217 2.593-4.394-.224-8.045-3.464-8.8-7.8-1.064-5.512 1.9-10.67 7.516-11.832a9.67 9.67 0 0 1 1.758-.211M184.377 36.7l4.272-10.6a1.19 1.19 0 0 1 1.16-.88 1.06 1.06 0 0 1 .934.492 1.07 1.07 0 0 1 .05 1.055l-6.452 15.436a4.17 4.17 0 0 1-4.457 2.725 3.06 3.06 0 0 1-.554-.088.88.88 0 0 1-.756-.993c.053-.545.4-.958.958-.88 1.758.255 2.46-.73 3.085-2.136.444-.888.444-1.934 0-2.822-1.6-3.692-3.1-7.428-4.65-11.146-.222-.392-.2-.878.08-1.24a1.09 1.09 0 0 1 1.134-.378c.44.094.785.438.88.88l3.3 8.1 1.037 2.523m-39.928.67a7.25 7.25 0 0 1-4.044 2.145 6.24 6.24 0 0 1-2.874-.229c-1.565-.52-2.417-1.864-2.435-3.868V26.44a1.1 1.1 0 1 1 2.189 0v7.9c-.08 2.97 1.758 3.674 4.15 3.217a4.79 4.79 0 0 0 1.573-.642c.988-.456 1.582-1.483 1.486-2.567v-8.026a1.1 1.1 0 0 1 1.134-1.1c.298-.001.583.123.785.342s.303.513.28.8v11.85a1.08 1.08 0 0 1-.835 1.178 1.03 1.03 0 0 1-1.2-.466c-.13-.22-.195-.474-.185-.73a6.6 6.6 0 0 0 0-.791m7.262-10.095a7.63 7.63 0 0 1 3.639-2.127 6.04 6.04 0 0 1 2.69 0c1.987.422 3.04 1.8 3.085 4.13v9a1.1 1.1 0 0 1-1.116 1.187c-.3-.016-.598-.157-.8-.4a1.13 1.13 0 0 1-.27-.848v-7.708c0-3.05-1.96-4.4-4.817-3.182a7.67 7.67 0 0 0-.958.483 2.64 2.64 0 0 0-1.468 2.593l.053 7.7a1.15 1.15 0 0 1-1.09 1.336c-.66.044-1.1-.5-1.1-1.327V26.554c0-.826.4-1.3 1.1-1.3s1.064.457 1.064 1.327v.782m21.402-1.985h2.092c.496.024.884.435.88.932a.88.88 0 0 1-.879.985c-.57.044-2.154 0-2.154 0v8.632c0 1.424.7 1.916 2.083 1.6.677-.15 1.2.07 1.354.57a1.02 1.02 0 0 1-.791 1.248 4.67 4.67 0 0 1-2.98.1c-1.242-.436-2.02-1.672-1.872-2.98v-9.168h-1.468a.88.88 0 0 1-.993-.976c-.01-.624.325-.932.993-.958h1.468v-2.857a1.1 1.1 0 0 1 1.125-1.108c.3-.003.567.113.768.32a1.06 1.06 0 0 1 .296.78.57.57 0 0 1 0 .123v2.743m-6.814 7.002v5.872a1.12 1.12 0 0 1-.485 1.035 1.11 1.11 0 0 1-1.14.065c-.43-.254-.66-.746-.58-1.24V26.555c0-.774.264-1.17.835-1.32a1.1 1.1 0 0 1 1.371 1.2v5.925"/><path d="M163.73 21.976c-.02-.4.12-.773.4-1.056a1.43 1.43 0 0 1 1.035-.444 1.48 1.48 0 0 1 1.375.7c.3.473.3 1.07 0 1.543s-.82.744-1.375.7c-.38 0-.746-.152-1.013-.423s-.415-.638-.4-1.02m-76.55 13.238a4.13 4.13 0 0 1-3.938 2.452 4.22 4.22 0 0 1-3.912-2.409 5.94 5.94 0 0 1-.677-2.98 5.48 5.48 0 0 1 1.653-4.158 4.4 4.4 0 0 1 7.032 1.661 6.33 6.33 0 0 1-.158 5.432m2.866-4.263c-.466-2.7-1.837-4.72-4.518-5.555a6.68 6.68 0 0 0-7.217 1.679c-1.518 1.666-2.217 3.92-1.907 6.153.28 3.727 3.138 6.417 7.445 6.426 2.505-.086 4.717-1.655 5.626-4 .66-1.47.86-3.108.57-4.694"/></g><path d="M17.8 51.687a1.68 1.68 0 0 0 .1.756 1.91 1.91 0 0 0 2.382 1.134 1.95 1.95 0 0 0 1.354-2.329l-3.085-12.026-.747 12.465" fill="url(#B)"/><path d="M23.672 47.6a.88.88 0 0 0 .2.316.81.81 0 0 0 1.178.053.96.96 0 0 0 .044-1.275L19.82 39.22l3.85 8.368" fill="url(#C)"/><path d="M11.955 46.59c-.08.093-.138.205-.167.325a.88.88 0 0 0 .6 1.072.94.94 0 0 0 1.143-.563l3.7-8.184c.026-.07-5.274 7.35-5.274 7.35" fill="url(#D)"/><path d="M31.75 47.406a2.99 2.99 0 0 0 1.248.51c1.784.27 3.464-.91 3.815-2.68.43-1.792-.63-3.605-2.4-4.114L21.36 38.81c0 .062 10.4 8.6 10.4 8.6" fill="url(#E)"/><path d="M4.536 39.065c-1.556.41-2.56 1.918-2.336 3.51s1.606 2.766 3.215 2.73c.398-.03.783-.154 1.125-.36l9.67-7.032c-.273.044-11.726 1.152-11.726 1.152" fill="url(#F)"/><path d="M45.543 35.073l-23.945 2.514 24.165 1.9c.326.05.658.03.976-.053a2.17 2.17 0 0 0 1.653-2.637 2.48 2.48 0 0 0-2.426-1.758c-.14-.01-.28-.01-.422 0" fill="url(#G)"/><path d="M4.06 33.254a1.2 1.2 0 0 0 1.046 1.292l11.366 2.2-10.777-4.472a1.04 1.04 0 0 0-.457-.114h0a1.15 1.15 0 0 0-1.152 1.09" fill="url(#H)"/><path d="M41.253 26.45s-14.75 7.11-18.39 9.256l-.492.3 20.57-5.6a2.01 2.01 0 0 0 .791-.352 2.12 2.12 0 0 0 .475-2.91c-.644-.98-1.94-1.284-2.954-.694" fill="url(#I)"/><path d="M33.623 19.637s-8.8 10.267-12.14 14.7a11.41 11.41 0 0 0-.448.615l16.7-11.243c.323-.208.593-.488.79-.817a2.85 2.85 0 0 0-.879-3.833 2.99 2.99 0 0 0-1.705-.536 2.85 2.85 0 0 0-2.277 1.116" fill="url(#J)"/><path d="M1.1 17.52A2.16 2.16 0 0 0 0 19.338h0c-.001.332.084.66.246.95a1.83 1.83 0 0 0 .554.659c0 0 16 14.065 16.034 14.065l-.316-.483C14.19 31.012 4.045 18.143 4.045 18.143a2.2 2.2 0 0 0-1.837-.976c-.393.002-.778.11-1.116.308" fill="url(#K)"/><path d="M23.48 13.317l-3.85 20.6-.053.59 7.973-20.218a2.09 2.09 0 0 0 .2-.879c.045-1.135-.835-2.093-1.97-2.145h-.105a2.27 2.27 0 0 0-2.2 2" fill="url(#L)"/><path d="M9.8 0C9.35.008 8.905.126 8.51.343A3.35 3.35 0 0 0 7.27 4.589l10.548 29.1.36.79c.044 0-5.45-31.645-5.45-31.645-.047-.432-.178-.85-.387-1.23a2.97 2.97 0 0 0-2.5-1.6z" fill="url(#M)"/></svg>