<svg width="64" height="64" viewBox="0 0 64 64" fill="none" xmlns="http://www.w3.org/2000/svg">
<path d="M45.4615 23H27.4615C25.9385 23 24.6923 24.2462 24.6923 25.7692V38.2308C24.6923 38.9652 24.9841 39.6696 25.5034 40.1889C26.0227 40.7082 26.7271 41 27.4615 41H45.4615C46.9985 41 48.2308 39.7677 48.2308 38.2308V25.7692C48.2308 25.0348 47.939 24.3304 47.4197 23.8111C46.9003 23.2918 46.196 23 45.4615 23ZM45.4615 38.2308H27.4615V28.0815L36.4615 32.6923L45.4615 28.0815V38.2308ZM36.4615 30.3523L27.4615 25.7692H45.4615L36.4615 30.3523ZM21.9231 38.2308C21.9231 38.4662 21.9646 38.6877 21.9923 38.9231H16.3846C15.6203 38.9231 15 38.3 15 37.5385C15 36.7769 15.6203 36.1538 16.3846 36.1538H21.9231V38.2308ZM19.1538 25.0769H21.9923C21.9646 25.3123 21.9231 25.5338 21.9231 25.7692V27.8462H19.1538C18.3923 27.8462 17.7692 27.2231 17.7692 26.4615C17.7692 25.7 18.3923 25.0769 19.1538 25.0769ZM16.3846 32C16.3846 31.2385 17.0077 30.6154 17.7692 30.6154H21.9231V33.3846H17.7692C17.0077 33.3846 16.3846 32.7615 16.3846 32Z" fill="url(#paint0_linear_403_2960)"/>
<path opacity="0.05" d="M32 64C49.6731 64 64 49.6731 64 32C64 14.3269 49.6731 0 32 0C14.3269 0 0 14.3269 0 32C0 49.6731 14.3269 64 32 64Z" fill="url(#paint1_linear_403_2960)"/>
<defs>
<linearGradient id="paint0_linear_403_2960" x1="15" y1="41" x2="48.2308" y2="41" gradientUnits="userSpaceOnUse">
<stop stop-color="#C81162"/>
<stop offset="0.0833333" stop-color="#CD205D"/>
<stop offset="0.15625" stop-color="#D22F58"/>
<stop offset="0.260417" stop-color="#D63D53"/>
<stop offset="0.359375" stop-color="#DB4C4D"/>
<stop offset="0.463542" stop-color="#DF5A48"/>
<stop offset="0.572917" stop-color="#E46843"/>
<stop offset="0.682292" stop-color="#E8763E"/>
<stop offset="0.765625" stop-color="#EC8439"/>
<stop offset="0.875" stop-color="#F19134"/>
<stop offset="0.989583" stop-color="#F49E2F"/>
</linearGradient>
<linearGradient id="paint1_linear_403_2960" x1="0" y1="0" x2="0" y2="64" gradientUnits="userSpaceOnUse">
<stop stop-color="#C81162"/>
<stop offset="0.0833333" stop-color="#CD205D"/>
<stop offset="0.15625" stop-color="#D22F58"/>
<stop offset="0.260417" stop-color="#D63D53"/>
<stop offset="0.359375" stop-color="#DB4C4D"/>
<stop offset="0.463542" stop-color="#DF5A48"/>
<stop offset="0.572917" stop-color="#E46843"/>
<stop offset="0.682292" stop-color="#E8763E"/>
<stop offset="0.765625" stop-color="#EC8439"/>
<stop offset="0.875" stop-color="#F19134"/>
<stop offset="0.989583" stop-color="#F49E2F"/>
</linearGradient>
</defs>
</svg>
