<svg width="64" height="64" viewBox="0 0 64 64" fill="none" xmlns="http://www.w3.org/2000/svg">
<path opacity="0.05" d="M32 64C49.6731 64 64 49.6731 64 32C64 14.3269 49.6731 0 32 0C14.3269 0 0 14.3269 0 32C0 49.6731 14.3269 64 32 64Z" fill="url(#paint0_linear_515_6934)"/>
<path d="M40.255 43.5011C40.155 43.5011 40.055 43.5012 39.96 43.4882C36.5762 43.1209 33.3253 41.9671 30.467 40.1191C27.8219 38.4325 25.5778 36.1877 23.892 33.5421C22.0447 30.6816 20.8936 27.4279 20.531 24.0421C20.4901 23.6173 20.5336 23.1886 20.6589 22.7806C20.7843 22.3727 20.989 21.9934 21.2614 21.6648C21.5338 21.3362 21.8684 21.0647 22.246 20.8658C22.6237 20.667 23.0369 20.5447 23.462 20.5061C23.562 20.4981 23.655 20.4932 23.753 20.4932H26.898C27.6766 20.4961 28.4283 20.7788 29.0158 21.2899C29.6033 21.801 29.9874 22.5063 30.098 23.2771C30.2182 24.19 30.4413 25.0864 30.763 25.9491C30.9795 26.5283 31.0261 27.1573 30.8973 27.7621C30.7685 28.3669 30.4696 28.9224 30.036 29.3632L29.357 30.0411C30.5429 31.8745 32.1038 33.4359 33.937 34.6222L34.61 33.9481C35.0513 33.5123 35.608 33.2118 36.2146 33.0823C36.8212 32.9527 37.4521 32.9996 38.033 33.2172C38.8914 33.5365 39.783 33.7586 40.691 33.8792C41.4761 33.9885 42.1939 34.3818 42.7087 34.9845C43.2235 35.5872 43.4997 36.3576 43.485 37.1501V40.2501C43.4874 41.1094 43.1485 41.9346 42.5429 42.5442C41.9372 43.1538 41.1143 43.4979 40.255 43.5011ZM40.181 41.1731H40.25C40.4905 41.1699 40.72 41.0719 40.8886 40.9004C41.0571 40.7288 41.151 40.4976 41.15 40.2571V37.1111C41.1556 36.8877 41.0789 36.6701 40.9346 36.4995C40.7902 36.329 40.5883 36.2175 40.367 36.1862C39.2878 36.0429 38.2281 35.7786 37.208 35.3982C37.0448 35.3361 36.8673 35.3219 36.6963 35.3573C36.5253 35.3927 36.368 35.4763 36.243 35.5981L34.929 36.9121C34.7485 37.0926 34.5137 37.2088 34.2607 37.2428C34.0078 37.2768 33.7507 37.2266 33.529 37.1001C30.7499 35.5189 28.4487 33.2175 26.868 30.4381C26.7416 30.2163 26.6917 29.9591 26.7258 29.7062C26.76 29.4532 26.8764 29.2184 27.057 29.0381L28.375 27.7212C28.4956 27.597 28.5785 27.441 28.6139 27.2716C28.6493 27.1022 28.6358 26.9262 28.575 26.7642C28.1926 25.7393 27.9269 24.6745 27.783 23.5901C27.7492 23.3735 27.6387 23.1764 27.4716 23.0345C27.3046 22.8927 27.0922 22.8155 26.873 22.8171H23.673C23.5536 22.8277 23.4374 22.8618 23.3312 22.9172C23.2249 22.9727 23.1307 23.0486 23.0538 23.1405C22.9769 23.2325 22.9188 23.3386 22.883 23.453C22.8472 23.5674 22.8343 23.6877 22.845 23.8071C23.1708 26.8258 24.1982 29.7263 25.845 32.2771C27.3507 34.6406 29.3552 36.6462 31.718 38.1532C34.2643 39.8012 37.1601 40.8322 40.175 41.1642L40.181 41.1731Z" fill="url(#paint1_linear_515_6934)"/>
<defs>
<linearGradient id="paint0_linear_515_6934" x1="0" y1="0" x2="0" y2="64" gradientUnits="userSpaceOnUse">
<stop stop-color="#C81162"/>
<stop offset="0.0833333" stop-color="#CD205D"/>
<stop offset="0.15625" stop-color="#D22F58"/>
<stop offset="0.260417" stop-color="#D63D53"/>
<stop offset="0.359375" stop-color="#DB4C4D"/>
<stop offset="0.463542" stop-color="#DF5A48"/>
<stop offset="0.572917" stop-color="#E46843"/>
<stop offset="0.682292" stop-color="#E8763E"/>
<stop offset="0.765625" stop-color="#EC8439"/>
<stop offset="0.875" stop-color="#F19134"/>
<stop offset="0.989583" stop-color="#F49E2F"/>
</linearGradient>
<linearGradient id="paint1_linear_515_6934" x1="43.4855" y1="20.4932" x2="43.4855" y2="43.5011" gradientUnits="userSpaceOnUse">
<stop stop-color="#C81162"/>
<stop offset="0.0833333" stop-color="#CD205D"/>
<stop offset="0.15625" stop-color="#D22F58"/>
<stop offset="0.260417" stop-color="#D63D53"/>
<stop offset="0.359375" stop-color="#DB4C4D"/>
<stop offset="0.463542" stop-color="#DF5A48"/>
<stop offset="0.572917" stop-color="#E46843"/>
<stop offset="0.682292" stop-color="#E8763E"/>
<stop offset="0.765625" stop-color="#EC8439"/>
<stop offset="0.875" stop-color="#F19134"/>
<stop offset="0.989583" stop-color="#F49E2F"/>
</linearGradient>
</defs>
</svg>
