<svg width="88" height="13" viewBox="0 0 88 13" fill="none" xmlns="http://www.w3.org/2000/svg">
<path d="M6.21872 9.53069L8.87068 8.85836L9.97868 12.2745L6.21872 9.53069ZM12.3218 5.11515H7.65369L6.21872 0.717773L4.78376 5.11515H0.115601L3.89373 7.84079L2.45876 12.2382L6.23689 9.51252L8.56189 7.84079L12.3218 5.11515ZM25.1094 9.53069L27.7613 8.85836L28.8693 12.2745L25.1094 9.53069ZM31.2125 5.11515H26.5443L25.1094 0.717773L23.6744 5.11515H19.0062L22.7843 7.84079L21.3494 12.2382L25.1275 9.51252L27.4525 7.84079L31.2125 5.11515ZM44 9.53069L46.6519 8.85836L47.7599 12.2745L44 9.53069ZM50.1031 5.11515H45.4349L44 0.717773L42.565 5.11515H37.8968L41.675 7.84079L40.24 12.2382L44.0181 9.51252L46.3431 7.84079L50.1031 5.11515ZM62.8906 9.53069L65.5425 8.85836L66.6506 12.2745L62.8906 9.53069ZM68.9937 5.11515H64.3256L62.8906 0.717773L61.4556 5.11515H56.7875L60.5656 7.84079L59.1306 12.2382L62.9088 9.51252L65.2338 7.84079L68.9937 5.11515ZM81.7812 9.53069L84.4332 8.85836L85.5412 12.2745L81.7812 9.53069ZM87.8843 5.11515H83.2162L81.7812 0.717773L80.3463 5.11515H75.6781L79.4562 7.84079L78.0213 12.2382L81.7994 9.51252L84.1244 7.84079L87.8843 5.11515Z" fill="white"/>
</svg>
