<svg width="58" height="13" viewBox="0 0 58 13" fill="none" xmlns="http://www.w3.org/2000/svg">
<path d="M0.738189 0.473145L8.52802 0.473145L8.52802 1.92331L5.46086 1.92331L5.46085 10.0981L3.77969 10.0981L3.77969 1.92331L0.725357 1.92331L0.738189 0.473145ZM8.19436 3.12964L9.63169 3.12964L9.63169 4.47714L9.65735 4.47714C9.70869 4.28464 9.79852 4.10498 9.92685 3.92531C10.0552 3.74564 10.2092 3.57881 10.4017 3.43764C10.5814 3.28364 10.7867 3.16814 11.0177 3.07831C11.2359 2.98848 11.4669 2.93714 11.6979 2.93714C11.8775 2.93714 12.0059 2.94998 12.07 2.94998C12.1342 2.96281 12.2112 2.97565 12.2754 2.97565L12.2754 4.45148C12.1727 4.42581 12.0572 4.41298 11.9417 4.40014C11.8262 4.38731 11.7235 4.37448 11.608 4.37448C11.3514 4.37448 11.1075 4.42581 10.8765 4.52848C10.6455 4.63114 10.453 4.78514 10.2734 4.97764C10.1065 5.18297 9.96535 5.42681 9.86269 5.72198C9.76002 6.01714 9.70869 6.36364 9.70869 6.74864L9.70869 10.0596L8.16869 10.0596L8.19436 3.12964ZM19.3337 10.0981L17.8194 10.0981L17.8194 9.12281L17.7937 9.12281C17.6012 9.48214 17.3189 9.75164 16.9467 9.96981C16.5745 10.188 16.1895 10.2906 15.8045 10.2906C14.8934 10.2906 14.226 10.0725 13.8154 9.61048C13.4047 9.16131 13.1994 8.46831 13.1994 7.55714L13.1994 3.12964L14.7394 3.12964L14.7394 7.40314C14.7394 8.01914 14.8549 8.45547 15.0987 8.69931C15.3297 8.95597 15.6634 9.08431 16.0869 9.08431C16.4077 9.08431 16.6772 9.03298 16.8954 8.93031C17.1135 8.82764 17.2932 8.69931 17.4215 8.53248C17.5627 8.36564 17.6525 8.16031 17.7167 7.92931C17.7809 7.69831 17.8065 7.44164 17.8065 7.17214L17.8065 3.12964L19.3465 3.12964L19.3465 10.0981L19.3337 10.0981ZM21.9517 7.86514C22.003 8.31431 22.1699 8.62231 22.465 8.81481C22.7602 8.99448 23.1195 9.08431 23.5302 9.08431C23.6714 9.08431 23.8382 9.07148 24.0179 9.04581C24.1975 9.02014 24.3772 8.98164 24.5312 8.91748C24.698 8.85331 24.8264 8.76348 24.929 8.63514C25.0317 8.50681 25.083 8.35281 25.0702 8.16031C25.0574 7.96781 24.9932 7.80098 24.852 7.67264C24.7109 7.54431 24.544 7.45448 24.3387 7.36464C24.1334 7.28764 23.8895 7.22348 23.62 7.17214C23.3505 7.12081 23.081 7.05664 22.7987 6.99248C22.5164 6.92831 22.234 6.85131 21.9645 6.76148C21.695 6.67165 21.464 6.55614 21.2459 6.38931C21.0405 6.23531 20.8609 6.04281 20.7454 5.79898C20.617 5.55515 20.5529 5.27281 20.5529 4.91348C20.5529 4.52848 20.6427 4.22048 20.8352 3.96381C21.0149 3.70714 21.2587 3.50181 21.541 3.34781C21.8234 3.19381 22.1442 3.07831 22.4907 3.01414C22.8372 2.94998 23.1709 2.92431 23.4789 2.92431C23.8382 2.92431 24.1847 2.96281 24.5055 3.03981C24.8264 3.11681 25.1344 3.23231 25.391 3.41198C25.6605 3.57881 25.8787 3.80981 26.0455 4.07931C26.2252 4.34881 26.3279 4.68248 26.3792 5.06748L24.775 5.06748C24.698 4.69531 24.5312 4.45148 24.2745 4.32315C24.005 4.19481 23.7099 4.13065 23.3634 4.13065C23.2607 4.13065 23.1195 4.14348 22.9784 4.15631C22.8244 4.18198 22.696 4.20765 22.5549 4.25898C22.4265 4.31031 22.311 4.38731 22.2212 4.47714C22.1314 4.56698 22.08 4.69531 22.08 4.84931C22.08 5.04181 22.1442 5.18298 22.2725 5.29848C22.4009 5.41398 22.5677 5.50381 22.7859 5.59365C22.9912 5.67064 23.235 5.73481 23.5045 5.78614C23.774 5.83748 24.0564 5.90164 24.3387 5.96581C24.621 6.02998 24.8905 6.10698 25.16 6.19681C25.4295 6.28664 25.6734 6.40215 25.8787 6.56898C26.084 6.72298 26.2637 6.91548 26.392 7.14648C26.5204 7.37748 26.5845 7.67264 26.5845 8.00631C26.5845 8.41698 26.4947 8.76348 26.3022 9.05864C26.1097 9.34098 25.8659 9.58481 25.5707 9.76448C25.2755 9.94414 24.929 10.0725 24.5697 10.1623C24.1975 10.2393 23.8382 10.2906 23.4789 10.2906C23.0425 10.2906 22.6319 10.2393 22.2597 10.1366C21.8875 10.034 21.5539 9.87998 21.2844 9.68748C21.0149 9.48214 20.7967 9.23831 20.6427 8.93031C20.4887 8.63514 20.3989 8.27581 20.386 7.85231L21.9389 7.85231L21.9389 7.86514L21.9517 7.86514ZM27.0209 3.12964L28.1887 3.12964L28.1887 1.02498L29.7287 1.02498L29.7287 3.11681L31.1147 3.11681L31.1147 4.25898L29.7287 4.25898L29.7287 7.98065C29.7287 8.14748 29.7415 8.27581 29.7543 8.40414C29.7672 8.51964 29.8057 8.62231 29.8442 8.69931C29.8955 8.77631 29.9725 8.84048 30.0624 8.87898C30.165 8.91748 30.2934 8.94315 30.473 8.94315C30.5757 8.94315 30.6912 8.94315 30.7939 8.93031C30.8965 8.91748 31.012 8.90465 31.1147 8.87898L31.1147 10.0725C30.9479 10.0981 30.781 10.111 30.6142 10.1238C30.4474 10.1495 30.2934 10.1495 30.1137 10.1495C29.703 10.1495 29.3822 10.111 29.1384 10.034C28.8945 9.95698 28.702 9.84148 28.5609 9.70031C28.4197 9.54631 28.3299 9.36664 28.2785 9.14848C28.2272 8.93031 28.2015 8.66081 28.1887 8.37848L28.1887 4.27181L27.0209 4.27181L27.0209 3.10398L27.0209 3.12964ZM32.1927 3.12964L33.6429 3.12964L33.6429 4.07931L33.6685 4.07931C33.8867 3.66864 34.1819 3.38631 34.5668 3.20665C34.9519 3.02698 35.3625 2.93714 35.8245 2.93714C36.3764 2.93715 36.8512 3.02698 37.2618 3.23231C37.6725 3.42481 38.0062 3.68148 38.2757 4.02798C38.5452 4.36164 38.7505 4.75948 38.8788 5.20865C39.0072 5.65781 39.0842 6.14548 39.0842 6.64598C39.0842 7.12081 39.02 7.56998 38.9045 8.00631C38.7762 8.44264 38.5965 8.84048 38.3527 9.17415C38.1088 9.50781 37.8008 9.77731 37.4159 9.98264C37.0308 10.188 36.5945 10.2906 36.0812 10.2906C35.863 10.2906 35.632 10.265 35.4138 10.2265C35.1957 10.188 34.9775 10.1238 34.7722 10.034C34.5669 9.94415 34.3744 9.82864 34.2075 9.68748C34.0279 9.54631 33.8867 9.37948 33.7712 9.19981L33.7455 9.19981L33.7455 12.6776L32.2055 12.6776L32.2055 3.12964L32.1927 3.12964ZM37.5699 6.62031C37.5699 6.31231 37.5314 6.00431 37.4415 5.70915C37.3645 5.41398 37.2362 5.15731 37.0694 4.92631C36.9025 4.69531 36.6972 4.51565 36.4662 4.37448C36.2224 4.23331 35.94 4.16915 35.632 4.16915C34.9904 4.16915 34.5027 4.38731 34.169 4.83648C33.8482 5.28565 33.6814 5.88881 33.6814 6.63315C33.6814 6.99248 33.7199 7.31331 33.8097 7.60848C33.8995 7.90364 34.015 8.16031 34.1947 8.37848C34.3615 8.59664 34.5669 8.76348 34.8107 8.89181C35.0545 9.02014 35.324 9.08431 35.6449 9.08431C36.0042 9.08431 36.2865 9.00731 36.5304 8.86615C36.7742 8.72498 36.9667 8.53248 37.1335 8.31431C37.2875 8.08331 37.403 7.82665 37.4672 7.53148C37.5313 7.22348 37.5699 6.92831 37.5699 6.62031ZM40.2777 0.473148L41.8177 0.473148L41.8177 1.92331L40.2777 1.92331L40.2777 0.473148ZM40.2777 3.12965L41.8177 3.12965L41.8177 10.0981L40.2777 10.0981L40.2777 3.12965ZM43.1908 0.473148L44.7309 0.473148L44.7308 10.0981L43.1908 10.0981L43.1908 0.473148ZM49.4278 10.2906C48.876 10.2906 48.3755 10.2008 47.9392 10.0083C47.5028 9.81581 47.1435 9.57198 46.8355 9.25115C46.5404 8.93031 46.3093 8.53248 46.1553 8.08331C46.0013 7.63415 45.9115 7.13365 45.9115 6.60748C45.9115 6.08131 45.9885 5.59365 46.1553 5.14448C46.3093 4.69531 46.5404 4.31031 46.8355 3.97665C47.1307 3.65581 47.5028 3.39915 47.9392 3.21948C48.3755 3.03981 48.876 2.93715 49.4278 2.93715C49.9797 2.93715 50.4802 3.02698 50.9165 3.21948C51.3529 3.39915 51.7122 3.65581 52.0202 3.97665C52.3153 4.29748 52.5463 4.69531 52.7003 5.14448C52.8543 5.59365 52.9442 6.08131 52.9442 6.60748C52.9442 7.14648 52.8672 7.63415 52.7003 8.08331C52.5335 8.53248 52.3153 8.91748 52.0202 9.25115C51.725 9.57198 51.3529 9.82865 50.9165 10.0083C50.4802 10.188 49.9925 10.2906 49.4278 10.2906ZM49.4278 9.07148C49.7615 9.07148 50.0695 8.99448 50.3133 8.85331C50.57 8.71215 50.7625 8.51965 50.9293 8.28865C51.0962 8.05765 51.2117 7.78815 51.2887 7.50581C51.3657 7.21065 51.4042 6.91548 51.4042 6.60748C51.4042 6.31231 51.3657 6.01715 51.2887 5.72198C51.2117 5.42681 51.0962 5.17015 50.9293 4.93915C50.7625 4.70815 50.5572 4.52848 50.3134 4.38732C50.0567 4.24615 49.7615 4.16915 49.4278 4.16915C49.0942 4.16915 48.7862 4.24615 48.5424 4.38731C48.2857 4.52848 48.0932 4.72098 47.9264 4.93915C47.7595 5.17015 47.644 5.42681 47.567 5.72198C47.49 6.01715 47.4515 6.31231 47.4515 6.60748C47.4515 6.91548 47.49 7.21065 47.567 7.50581C47.644 7.80098 47.7595 8.05765 47.9264 8.28865C48.0932 8.51965 48.2985 8.71215 48.5424 8.85331C48.799 9.00731 49.0942 9.07148 49.4278 9.07148ZM53.4062 3.12965L54.574 3.12965L54.574 1.02498L56.114 1.02498L56.114 3.11681L57.5 3.11681L57.5 4.25898L56.114 4.25898L56.114 7.98065C56.114 8.14748 56.1268 8.27581 56.1397 8.40415C56.1525 8.51965 56.191 8.62231 56.2295 8.69931C56.2808 8.77631 56.3578 8.84048 56.4477 8.87898C56.5503 8.91748 56.6787 8.94315 56.8583 8.94315C56.961 8.94315 57.0765 8.94315 57.1792 8.93031C57.2818 8.91748 57.3973 8.90465 57.5 8.87898L57.5 10.0725C57.3332 10.0981 57.1663 10.111 56.9995 10.1238C56.8327 10.1495 56.6787 10.1495 56.499 10.1495C56.0883 10.1495 55.7675 10.111 55.5237 10.034C55.2798 9.95698 55.0873 9.84148 54.9462 9.70031C54.805 9.54631 54.7152 9.36664 54.6639 9.14848C54.6125 8.93031 54.5868 8.66081 54.574 8.37848L54.574 4.27181L53.4062 4.27181L53.4062 3.10398L53.4062 3.12965Z" fill="white"/>
</svg>
