<svg width="57" height="13" viewBox="0 0 57 13" fill="none" xmlns="http://www.w3.org/2000/svg">
<path d="M0.238174 0.698975L8.02801 0.698975L8.02801 2.14914L4.96084 2.14914L4.96084 10.324L3.27967 10.324L3.27967 2.14914L0.225342 2.14914L0.238174 0.698975ZM7.69434 3.35547L9.13167 3.35547L9.13167 4.70297L9.15734 4.70297C9.20867 4.51047 9.29851 4.33081 9.42684 4.15114C9.55517 3.97147 9.70917 3.80464 9.90167 3.66347C10.0813 3.50947 10.2867 3.39397 10.5177 3.30414C10.7358 3.21431 10.9668 3.16297 11.1978 3.16297C11.3775 3.16297 11.5058 3.17581 11.57 3.17581C11.6342 3.18864 11.7112 3.20148 11.7753 3.20148L11.7753 4.67731C11.6727 4.65164 11.5572 4.63881 11.4417 4.62597C11.3262 4.61314 11.2235 4.60031 11.108 4.60031C10.8513 4.60031 10.6075 4.65164 10.3765 4.75431C10.1455 4.85697 9.95301 5.01097 9.77334 5.20347C9.60651 5.4088 9.46534 5.65264 9.36267 5.94781C9.26001 6.24297 9.20867 6.58947 9.20867 6.97447L9.20867 10.2855L7.66867 10.2855L7.69434 3.35547ZM18.8337 10.324L17.3193 10.324L17.3193 9.34864L17.2937 9.34864C17.1012 9.70797 16.8188 9.97747 16.4467 10.1956C16.0745 10.4138 15.6895 10.5165 15.3045 10.5165C14.3933 10.5165 13.726 10.2983 13.3153 9.83631C12.9047 9.38714 12.6993 8.69414 12.6993 7.78297L12.6993 3.35547L14.2393 3.35547L14.2393 7.62897C14.2393 8.24497 14.3548 8.6813 14.5987 8.92514C14.8297 9.1818 15.1633 9.31014 15.5868 9.31014C15.9077 9.31014 16.1772 9.25881 16.3953 9.15614C16.6135 9.05347 16.7932 8.92514 16.9215 8.75831C17.0627 8.59147 17.1525 8.38614 17.2167 8.15514C17.2808 7.92414 17.3065 7.66747 17.3065 7.39797L17.3065 3.35547L18.8465 3.35547L18.8465 10.324L18.8337 10.324ZM21.4517 8.09097C21.503 8.54014 21.6698 8.84814 21.965 9.04064C22.2602 9.22031 22.6195 9.31014 23.0302 9.31014C23.1713 9.31014 23.3382 9.29731 23.5178 9.27164C23.6975 9.24597 23.8772 9.20747 24.0312 9.14331C24.198 9.07914 24.3263 8.98931 24.429 8.86097C24.5317 8.73264 24.583 8.57864 24.5702 8.38614C24.5573 8.19364 24.4932 8.02681 24.352 7.89847C24.2108 7.77014 24.044 7.68031 23.8387 7.59047C23.6333 7.51347 23.3895 7.44931 23.12 7.39797C22.8505 7.34664 22.581 7.28247 22.2987 7.21831C22.0163 7.15414 21.734 7.07714 21.4645 6.98731C21.195 6.89748 20.964 6.78197 20.7458 6.61514C20.5405 6.46114 20.3608 6.26864 20.2453 6.02481C20.117 5.78098 20.0528 5.49864 20.0528 5.13931C20.0528 4.75431 20.1427 4.44631 20.3352 4.18964C20.5148 3.93297 20.7587 3.72764 21.041 3.57364C21.3233 3.41964 21.6442 3.30414 21.9907 3.23997C22.3372 3.17581 22.6708 3.15014 22.9788 3.15014C23.3382 3.15014 23.6847 3.18864 24.0055 3.26564C24.3263 3.34264 24.6343 3.45814 24.891 3.63781C25.1605 3.80464 25.3787 4.03564 25.5455 4.30514C25.7252 4.57464 25.8278 4.90831 25.8792 5.29331L24.275 5.29331C24.198 4.92114 24.0312 4.67731 23.7745 4.54898C23.505 4.42064 23.2098 4.35648 22.8633 4.35648C22.7607 4.35648 22.6195 4.36931 22.4783 4.38214C22.3243 4.40781 22.196 4.43348 22.0548 4.48481C21.9265 4.53614 21.811 4.61314 21.7212 4.70297C21.6313 4.79281 21.58 4.92114 21.58 5.07514C21.58 5.26764 21.6442 5.40881 21.7725 5.52431C21.9008 5.63981 22.0677 5.72964 22.2858 5.81948C22.4912 5.89647 22.735 5.96064 23.0045 6.01197C23.274 6.06331 23.5563 6.12747 23.8387 6.19164C24.121 6.25581 24.3905 6.33281 24.66 6.42264C24.9295 6.51247 25.1733 6.62798 25.3787 6.79481C25.584 6.94881 25.7637 7.14131 25.892 7.37231C26.0203 7.60331 26.0845 7.89847 26.0845 8.23214C26.0845 8.64281 25.9947 8.98931 25.8022 9.28447C25.6097 9.56681 25.3658 9.81064 25.0707 9.99031C24.7755 10.17 24.429 10.2983 24.0697 10.3881C23.6975 10.4651 23.3382 10.5165 22.9788 10.5165C22.5425 10.5165 22.1318 10.4651 21.7597 10.3625C21.3875 10.2598 21.0538 10.1058 20.7843 9.91331C20.5148 9.70797 20.2967 9.46414 20.1427 9.15614C19.9887 8.86097 19.8988 8.50164 19.886 8.07814L21.4388 8.07814L21.4388 8.09097L21.4517 8.09097ZM26.5208 3.35547L27.6887 3.35547L27.6887 1.25081L29.2287 1.25081L29.2287 3.34264L30.6147 3.34264L30.6147 4.48481L29.2287 4.48481L29.2287 8.20648C29.2287 8.37331 29.2415 8.50164 29.2543 8.62997C29.2672 8.74547 29.3057 8.84814 29.3442 8.92514C29.3955 9.00214 29.4725 9.06631 29.5623 9.10481C29.665 9.14331 29.7933 9.16898 29.973 9.16898C30.0757 9.16898 30.1912 9.16898 30.2938 9.15614C30.3965 9.14331 30.512 9.13048 30.6147 9.10481L30.6147 10.2983C30.4478 10.324 30.281 10.3368 30.1142 10.3496C29.9473 10.3753 29.7933 10.3753 29.6137 10.3753C29.203 10.3753 28.8822 10.3368 28.6383 10.2598C28.3945 10.1828 28.202 10.0673 28.0608 9.92614C27.9197 9.77214 27.8298 9.59247 27.7785 9.37431C27.7272 9.15614 27.7015 8.88664 27.6887 8.60431L27.6887 4.49764L26.5208 4.49764L26.5208 3.32981L26.5208 3.35547ZM31.6927 3.35547L33.1428 3.35547L33.1428 4.30514L33.1685 4.30514C33.3867 3.89447 33.6818 3.61214 34.0668 3.43248C34.4518 3.25281 34.8625 3.16298 35.3245 3.16298C35.8763 3.16298 36.3512 3.25281 36.7618 3.45814C37.1725 3.65064 37.5062 3.90731 37.7757 4.25381C38.0452 4.58748 38.2505 4.98531 38.3788 5.43448C38.5072 5.88364 38.5842 6.37131 38.5842 6.87181C38.5842 7.34664 38.52 7.79581 38.4045 8.23214C38.2762 8.66847 38.0965 9.06631 37.8527 9.39998C37.6088 9.73364 37.3008 10.0031 36.9158 10.2085C36.5308 10.4138 36.0945 10.5165 35.5812 10.5165C35.363 10.5165 35.132 10.4908 34.9138 10.4523C34.6957 10.4138 34.4775 10.3496 34.2722 10.2598C34.0668 10.17 33.8743 10.0545 33.7075 9.91331C33.5278 9.77214 33.3867 9.60531 33.2712 9.42564L33.2455 9.42564L33.2455 12.9035L31.7055 12.9035L31.7055 3.35547L31.6927 3.35547ZM37.0698 6.84614C37.0698 6.53814 37.0313 6.23014 36.9415 5.93498C36.8645 5.63981 36.7362 5.38314 36.5693 5.15214C36.4025 4.92114 36.1972 4.74148 35.9662 4.60031C35.7223 4.45914 35.44 4.39498 35.132 4.39498C34.4903 4.39498 34.0027 4.61314 33.669 5.06231C33.3482 5.51148 33.1813 6.11464 33.1813 6.85898C33.1813 7.21831 33.2198 7.53914 33.3097 7.83431C33.3995 8.12947 33.515 8.38614 33.6947 8.60431C33.8615 8.82247 34.0668 8.98931 34.3107 9.11764C34.5545 9.24597 34.824 9.31014 35.1448 9.31014C35.5042 9.31014 35.7865 9.23314 36.0303 9.09198C36.2742 8.95081 36.4667 8.75831 36.6335 8.54014C36.7875 8.30914 36.903 8.05248 36.9672 7.75731C37.0313 7.44931 37.0698 7.15414 37.0698 6.84614ZM39.7777 0.698978L41.3177 0.698978L41.3177 2.14914L39.7777 2.14914L39.7777 0.698978ZM39.7777 3.35548L41.3177 3.35548L41.3177 10.324L39.7777 10.324L39.7777 3.35548ZM42.6908 0.698978L44.2308 0.698978L44.2308 10.324L42.6908 10.324L42.6908 0.698978ZM48.9278 10.5165C48.376 10.5165 47.8755 10.4266 47.4392 10.2341C47.0028 10.0416 46.6435 9.79781 46.3355 9.47698C46.0403 9.15614 45.8093 8.75831 45.6553 8.30914C45.5013 7.85998 45.4115 7.35948 45.4115 6.83331C45.4115 6.30714 45.4885 5.81948 45.6553 5.37031C45.8093 4.92114 46.0403 4.53614 46.3355 4.20248C46.6307 3.88164 47.0028 3.62498 47.4392 3.44531C47.8755 3.26564 48.376 3.16298 48.9278 3.16298C49.4797 3.16298 49.9802 3.25281 50.4165 3.44531C50.8528 3.62498 51.2122 3.88164 51.5202 4.20248C51.8153 4.52331 52.0463 4.92114 52.2003 5.37031C52.3543 5.81948 52.4442 6.30714 52.4442 6.83331C52.4442 7.37231 52.3672 7.85998 52.2003 8.30914C52.0335 8.75831 51.8153 9.14331 51.5202 9.47698C51.225 9.79781 50.8528 10.0545 50.4165 10.2341C49.9802 10.4138 49.4925 10.5165 48.9278 10.5165ZM48.9278 9.29731C49.2615 9.29731 49.5695 9.22031 49.8133 9.07914C50.07 8.93798 50.2625 8.74548 50.4293 8.51448C50.5962 8.28348 50.7117 8.01398 50.7887 7.73164C50.8657 7.43648 50.9042 7.14131 50.9042 6.83331C50.9042 6.53814 50.8657 6.24298 50.7887 5.94781C50.7117 5.65264 50.5962 5.39598 50.4293 5.16498C50.2625 4.93398 50.0572 4.75431 49.8133 4.61315C49.5567 4.47198 49.2615 4.39498 48.9278 4.39498C48.5942 4.39498 48.2862 4.47198 48.0423 4.61315C47.7857 4.75431 47.5932 4.94681 47.4263 5.16498C47.2595 5.39598 47.144 5.65264 47.067 5.94781C46.99 6.24298 46.9515 6.53814 46.9515 6.83331C46.9515 7.14131 46.99 7.43648 47.067 7.73164C47.144 8.02681 47.2595 8.28348 47.4263 8.51448C47.5932 8.74548 47.7985 8.93798 48.0423 9.07914C48.299 9.23314 48.5942 9.29731 48.9278 9.29731ZM52.9062 3.35548L54.074 3.35548L54.074 1.25081L55.614 1.25081L55.614 3.34264L57 3.34264L57 4.48481L55.614 4.48481L55.614 8.20648C55.614 8.37331 55.6268 8.50164 55.6397 8.62998C55.6525 8.74548 55.691 8.84814 55.7295 8.92514C55.7808 9.00214 55.8578 9.06631 55.9477 9.10481C56.0503 9.14331 56.1787 9.16898 56.3583 9.16898C56.461 9.16898 56.5765 9.16898 56.6792 9.15614C56.7818 9.14331 56.8973 9.13048 57 9.10481L57 10.2983C56.8332 10.324 56.6663 10.3368 56.4995 10.3496C56.3327 10.3753 56.1787 10.3753 55.999 10.3753C55.5883 10.3753 55.2675 10.3368 55.0237 10.2598C54.7798 10.1828 54.5873 10.0673 54.4462 9.92614C54.305 9.77214 54.2152 9.59247 54.1638 9.37431C54.1125 9.15614 54.0868 8.88664 54.074 8.60431L54.074 4.49764L52.9062 4.49764L52.9062 3.32981L52.9062 3.35548Z" fill="black"/>
</svg>
